# xmcd CD database file
#
# Track frame offsets:
#	150
#	16186
#	38609
#	59394
#	77581
#	97679
#	119027
#	138054
#	153430
#	172166
#	195662
#	211247
#	229508
#	248136
#	265046
#	284193
#	302822
#	324033
#
# Disc length: 4580 seconds
#
# Revision: 2
# Processed by: cddbd v1.5.2PL0 Copyright (c) Steve Scherf et al.
# Submitted via: CDex 1.51
#
DISCID=ea11e212
DTITLE=Various Artist - SF-327
DYEAR=1900
DGENRE=Blues
TTITLE0=Psy - Gentleman
TTITLE1=Will.i.am Ft Justin Bieber - That power
TTITLE2=Daft Punk Ft Pharrel Williams - Get Lucky
TTITLE3=Stooshie - Slip
TTITLE4=Passenger - Let Her Go
TTITLE5=Macklemore and Ryan Lewis Ft Ray Dalton - Can't Hold Us
TTITLE6=Duke Dumont Ft A*M*E - Need U (100%)
TTITLE7=Imagine Dragons - Radioactive
TTITLE8=Calvin Harris Ft Ellie Goulding - I Need Your Love
TTITLE9=Rudimental Ft Ella Eyre - Waiting For Tonight
TTITLE10=Aluna George - Attracting Flies
TTITLE11=Wretch 32 Ft Shakka - Black Out (clean)
TTITLE12=Kodaline - High Hope
TTITLE13=Fall Out Boy - Young Volcanoes (clean)
TTITLE14=Biffy Clyro - Biblical
TTITLE15=Pitbull Ft Christina Aguilera - Feel This Moment
TTITLE16=Ben Howard - Keep Your Head Up
TTITLE17=Emile Sande and Rick Smith - Here It Comes
EXTD=
EXTT0=
EXTT1=
EXTT2=
EXTT3=
EXTT4=
EXTT5=
EXTT6=
EXTT7=
EXTT8=
EXTT9=
EXTT10=
EXTT11=
EXTT12=
EXTT13=
EXTT14=
EXTT15=
EXTT16=
EXTT17=
PLAYORDER=
